<?xml version="1.0" standalone="no"?>
<!DOCTYPE svg PUBLIC "-//W3C//DTD SVG 20010904//EN"
 "http://www.w3.org/TR/2001/REC-SVG-20010904/DTD/svg10.dtd">
<svg version="1.0" xmlns="http://www.w3.org/2000/svg"
 width="16.000000pt" height="16.000000pt" viewBox="0 0 16.000000 16.000000"
 preserveAspectRatio="xMidYMid meet">
<metadata>
Created by potrace 1.11, written by Peter Selinger 2001-2013
</metadata>
<g transform="translate(0.000000,16.000000) scale(0.006250,-0.006250)"
fill="#000000" stroke="none">
<path d="M1860 2210 c0 -5 4 -10 9 -10 6 0 38 -41 72 -90 54 -79 145 -170 170
-170 29 0 -23 132 -72 185 -53 58 -179 118 -179 85z"/>
<path d="M613 2189 c-65 -32 -128 -93 -151 -146 -22 -53 -38 -123 -27 -123 20
0 120 101 162 163 26 40 58 84 72 100 23 25 23 27 5 27 -10 0 -38 -9 -61 -21z"/>
<path d="M2086 2112 c-3 -5 4 -23 14 -40 17 -27 32 -75 54 -174 6 -26 2 -24
-73 32 -44 33 -87 70 -95 82 -20 28 -30 18 -21 -20 10 -47 64 -115 152 -192
45 -39 84 -77 87 -85 3 -8 10 -15 16 -15 6 0 10 45 10 123 0 107 -3 128 -24
172 -28 59 -107 137 -120 117z"/>
<path d="M396 2057 c-61 -62 -78 -118 -75 -254 1 -59 4 -111 5 -114 7 -13 223
208 243 248 18 37 28 83 17 83 -2 0 -23 -19 -48 -42 -83 -80 -151 -133 -145
-112 3 10 11 46 17 79 7 33 23 81 36 108 32 62 11 64 -50 4z"/>
<path d="M2247 1923 c8 -30 9 -48 3 -210 -4 -101 -4 -102 -19 -70 -14 29 -152
177 -166 177 -3 0 -5 -10 -5 -22 0 -34 40 -113 108 -212 34 -49 66 -104 72
-122 12 -34 27 -44 35 -21 58 189 67 232 63 298 -4 52 -14 86 -39 136 -36 71
-66 98 -52 46z"/>
<path d="M276 1908 c-71 -108 -78 -215 -26 -378 18 -58 36 -109 40 -113 4 -5
19 16 33 47 14 31 46 84 71 119 56 78 96 162 96 202 0 29 0 29 -61 -30 -34
-33 -74 -79 -89 -103 l-28 -43 -9 113 c-9 132 -9 144 0 181 9 33 -7 36 -27 5z"/>
<path d="M1630 1710 l0 -140 30 0 c28 0 30 3 30 35 0 44 9 44 38 0 18 -29 28
-35 57 -35 19 0 35 1 35 3 0 1 -18 27 -39 57 l-39 55 34 37 c41 46 43 58 7 58
-20 0 -37 -11 -60 -37 l-32 -38 -1 73 0 72 -30 0 -30 0 0 -140z"/>
<path d="M838 1823 c-39 -24 -62 -82 -55 -139 6 -59 33 -95 84 -113 82 -29
163 24 163 107 l0 32 -60 0 c-53 0 -60 -2 -60 -20 0 -16 7 -20 30 -20 33 0 35
-3 20 -31 -14 -25 -71 -26 -93 -1 -27 30 -26 103 3 132 27 27 56 25 85 -6 15
-16 32 -24 47 -22 31 4 26 35 -13 71 -23 22 -39 27 -77 27 -26 0 -59 -8 -74
-17z"/>
<path d="M1067 1773 c-4 -3 -7 -51 -7 -105 l0 -98 35 0 34 0 3 73 c3 71 3 72
31 75 24 3 28 7 25 30 -4 32 -29 40 -52 17 -14 -15 -16 -15 -16 -1 0 16 -40
23 -53 9z"/>
<path d="M1250 1769 c-39 -16 -60 -49 -60 -97 0 -56 23 -89 72 -102 32 -9 46
-8 76 7 46 22 58 63 19 63 -14 0 -30 -7 -37 -15 -15 -18 -42 -19 -58 -3 -22
22 -13 27 56 30 l67 3 -3 35 c-6 63 -73 103 -132 79z m68 -56 c2 -9 -8 -13
-33 -13 -33 0 -36 2 -25 15 15 18 51 16 58 -2z"/>
<path d="M1470 1769 c-39 -16 -60 -49 -60 -97 0 -56 23 -89 72 -102 32 -9 46
-8 76 7 46 22 58 63 19 63 -14 0 -30 -7 -37 -15 -15 -18 -42 -19 -58 -3 -22
22 -13 27 56 30 l67 3 -3 35 c-6 63 -73 103 -132 79z m68 -56 c2 -9 -8 -13
-33 -13 -33 0 -36 2 -25 15 15 18 51 16 58 -2z"/>
<path d="M2350 1610 c0 -22 -9 -66 -21 -98 -12 -31 -32 -86 -44 -122 -24 -64
-27 -64 -40 -5 -8 38 -103 205 -117 205 -5 0 -7 -12 -4 -27 3 -16 8 -53 12
-83 3 -30 20 -98 35 -150 16 -52 32 -121 36 -152 3 -32 9 -58 12 -58 3 1 19
20 34 43 16 23 44 64 63 91 53 76 78 170 71 275 -3 47 -8 94 -12 104 -12 30
-25 18 -25 -23z"/>
<path d="M180 1623 c0 -5 -4 -36 -9 -71 -12 -78 2 -180 33 -247 23 -50 129
-197 141 -196 4 1 8 25 10 53 2 29 15 92 29 139 38 130 59 279 38 279 -11 0
-113 -202 -112 -225 0 -11 -5 -27 -10 -35 -8 -13 -10 -12 -10 3 0 10 -18 61
-39 112 -21 51 -42 116 -46 144 -4 28 -11 51 -16 51 -5 0 -9 -3 -9 -7z"/>
<path d="M1610 1260 l0 -140 30 0 c28 0 30 3 30 35 0 44 9 44 38 0 18 -29 28
-35 57 -35 19 0 35 1 35 3 0 1 -18 27 -39 57 l-39 55 34 37 c41 46 43 58 7 58
-20 0 -37 -11 -60 -37 l-32 -38 -1 73 0 72 -30 0 -30 0 0 -140z"/>
<path d="M810 1375 c0 -8 14 -69 32 -135 l31 -120 32 0 c30 0 31 2 50 75 10
41 21 75 25 75 4 0 16 -33 27 -72 18 -70 21 -73 51 -76 18 -2 32 -1 32 2 0 5
55 211 66 249 4 14 -1 17 -29 17 l-34 0 -19 -92 -20 -93 -23 93 c-22 88 -24
92 -50 92 -26 0 -29 -4 -46 -80 -17 -73 -35 -113 -35 -77 0 8 -7 47 -16 86
-15 68 -17 71 -45 71 -19 0 -29 -5 -29 -15z"/>
<path d="M1230 1319 c-39 -16 -60 -49 -60 -97 0 -56 23 -89 72 -102 32 -9 46
-8 76 7 46 22 58 63 19 63 -14 0 -30 -7 -37 -15 -15 -18 -42 -19 -58 -3 -22
22 -13 27 56 30 l67 3 -3 35 c-6 63 -73 103 -132 79z m68 -56 c2 -9 -8 -13
-33 -13 -33 0 -36 2 -25 15 15 18 51 16 58 -2z"/>
<path d="M1440 1319 c-39 -16 -60 -49 -60 -97 0 -56 23 -89 72 -102 32 -9 46
-8 76 7 46 22 58 63 19 63 -14 0 -30 -7 -37 -15 -15 -18 -42 -19 -58 -3 -22
22 -13 27 56 30 l67 3 -3 35 c-6 63 -73 103 -132 79z m68 -56 c2 -9 -8 -13
-33 -13 -33 0 -36 2 -25 15 15 18 51 16 58 -2z"/>
<path d="M2124 1303 c-3 -16 -8 -34 -10 -42 -2 -7 -11 -84 -19 -172 -8 -87
-21 -174 -30 -195 -8 -20 -12 -40 -9 -45 3 -5 39 14 81 43 156 108 220 184
248 296 26 102 6 151 -28 68 -10 -24 -42 -70 -71 -102 -29 -33 -67 -78 -84
-102 l-31 -43 6 55 c6 59 -24 266 -38 266 -5 0 -11 -12 -15 -27z"/>
<path d="M395 1205 c-14 -90 -16 -130 -8 -167 5 -26 9 -48 8 -48 -1 0 -17 21
-36 48 -18 26 -57 73 -86 104 -28 31 -61 75 -73 97 -30 60 -44 53 -36 -16 9
-79 45 -153 107 -218 54 -57 226 -181 237 -171 3 4 -2 28 -11 54 -10 26 -22
99 -27 162 -13 146 -28 234 -45 256 -10 15 -15 0 -30 -101z"/>
<path d="M2021 1049 c-17 -22 -48 -96 -71 -163 -22 -68 -56 -149 -75 -180 -18
-31 -30 -56 -26 -56 4 0 49 9 100 20 116 26 195 65 260 130 48 48 120 174 107
187 -3 4 -28 -14 -54 -40 -26 -26 -88 -70 -137 -100 -50 -29 -102 -61 -116
-70 l-26 -17 28 57 c19 38 32 87 38 140 6 45 13 93 17 107 9 39 -12 32 -45
-15z"/>
<path d="M494 1058 c3 -13 13 -65 22 -117 8 -52 26 -115 40 -142 l24 -49 -64
40 c-36 21 -88 51 -117 65 -28 15 -73 49 -99 76 -27 28 -50 46 -53 42 -11 -18
56 -135 104 -183 66 -66 148 -106 266 -130 53 -11 98 -18 100 -16 3 2 -8 23
-23 47 -15 24 -46 96 -70 161 -24 65 -51 133 -60 151 -19 37 -53 77 -67 77 -5
0 -7 -10 -3 -22z"/>
<path d="M1790 754 c-97 -97 -176 -154 -215 -154 -23 0 -18 -19 8 -25 239 -54
313 -57 411 -12 56 26 161 121 151 137 -3 4 -29 -5 -58 -21 -52 -28 -108 -39
-259 -53 l-58 -5 29 25 c24 20 121 187 121 208 0 22 -39 -8 -130 -100z"/>
<path d="M655 828 c16 -52 80 -160 110 -187 l33 -29 -67 5 c-127 8 -204 24
-253 50 -26 14 -51 23 -55 19 -14 -13 90 -105 150 -132 90 -40 159 -42 303 -9
65 15 123 30 128 33 5 2 -24 20 -64 38 -59 28 -88 51 -169 134 -97 100 -129
121 -116 78z"/>
<path d="M1070 584 c-8 -3 -70 -28 -137 -55 -103 -41 -132 -49 -188 -49 -36 0
-81 7 -100 14 -82 35 -6 -37 81 -76 105 -47 219 -24 337 68 55 44 100 64 141
64 12 0 -9 -19 -54 -49 -41 -27 -94 -69 -118 -93 l-42 -44 24 -23 25 -24 74
75 c67 68 155 138 172 138 16 0 106 -70 176 -137 l76 -73 23 25 c19 20 21 27
10 40 -20 24 -130 109 -180 138 -44 26 -45 27 -15 27 37 0 93 -28 165 -80 70
-52 145 -75 218 -66 57 7 157 53 188 87 21 23 11 37 -12 18 -12 -10 -45 -14
-108 -14 -86 0 -98 3 -211 49 l-120 48 -95 -6 c-116 -8 -114 -8 -225 -2 -49 3
-97 3 -105 0z"/>
</g>
</svg>
